<svg width="207" height="116" viewBox="0 0 207 116" fill="none"
    xmlns="http://www.w3.org/2000/svg">
    <path d="M36.5381 87.3L35.0381 92.31H27.7781L29.1581 87.36L36.5381 87.3ZM42.1781 102.87L37.9781 107.97H23.3981L27.2681 94.29H34.5581L32.1581 102.84L42.1781 102.87ZM65.2357 92.34H45.4657C45.8657 90.98 46.5457 89.83 47.5057 88.89C48.6857 87.75 49.9057 87.18 51.1657 87.18H61.3657C63.9457 87.18 65.2357 88.55 65.2357 91.29C65.2357 91.97 65.2357 92.32 65.2357 92.34ZM64.8157 94.26L64.6957 94.74C64.3757 95.78 63.8257 97.68 63.0457 100.44C62.5457 102.18 61.7757 103.64 60.7357 104.82C58.8557 106.94 56.3357 108 53.1757 108H49.6057C47.6857 108 46.1657 107.64 45.0457 106.92C43.6657 106.06 42.9757 104.73 42.9757 102.93C42.9757 101.97 43.1257 100.95 43.4257 99.87L44.9257 94.32H51.9157L49.8457 101.61C49.7657 101.95 49.7257 102.21 49.7257 102.39C49.7257 102.79 49.9057 103.04 50.2657 103.14H54.6157C55.1557 103 55.5557 102.49 55.8157 101.61L57.9757 94.29L64.8157 94.26ZM86.4291 87.3L84.9891 92.34H65.5191L68.7291 87.3H86.4291ZM84.5691 94.29L82.9191 99.78H73.2891L71.0391 107.97H63.1491L66.9591 94.29H84.5691ZM108.05 87.3L106.67 92.28H86.6897L89.8697 87.3H108.05ZM100.28 94.29L96.6497 107.97H89.7797L93.4997 94.29H100.28Z" fill="white"/>
    <path d="M129.993 87.3L128.613 92.28H108.633L111.813 87.3H129.993ZM122.223 94.29L118.593 107.97H111.723L115.443 94.29H122.223ZM148.486 92.34H135.526L139.846 87.3H147.406L148.486 92.34ZM151.846 107.97H144.316L142.276 99.81H138.016L131.986 107.97H123.196L133.936 94.26H148.906L151.846 107.97ZM177.184 87.33L172.354 92.31L157.834 92.28L156.634 87.39H164.164L164.734 89.73L166.954 87.36L177.184 87.33ZM170.494 94.29L166.864 98.28L168.904 108L161.104 107.97L160.534 105.45L158.284 108H148.114L158.644 96.36L158.224 94.35L170.494 94.29ZM185.261 87.3L183.881 92.34H176.651L178.091 87.3H185.261ZM183.431 94.29L179.681 107.97H172.391L176.201 94.29H183.431Z" fill="#FDBF5A"/>
    <path fill-rule="evenodd" clip-rule="evenodd" d="M103.5 75C124.211 75 141 58.2107 141 37.5C141 33.1507 140.26 28.9743 138.898 25.0901L91.0901 72.8979C94.9743 74.2596 99.1507 75 103.5 75ZM73.1972 59.5949L91.5971 41.195L70.3518 19.9498C67.5737 25.1861 66 31.1593 66 37.5C66 45.7611 68.6713 53.3983 73.1972 59.5949ZM85.9498 4.35183L107.195 25.5971L125.595 7.19718C119.398 2.67128 111.761 0 103.5 0C97.1593 0 91.1861 1.5737 85.9498 4.35183Z" fill="#FDBF5A"/>
    <path d="M78.3608 12.4554L83.001 17.0956" stroke="#FDBF5A" stroke-width="4"/>
    <path d="M88.2872 60.1103L83.647 64.7505" stroke="#FDBF5A" stroke-width="4"/>
    <path d="M96.5593 51.2867L91.9191 55.9269" stroke="#FDBF5A" stroke-width="4"/>
    <path d="M104.831 42.4633L100.191 47.1034" stroke="#FDBF5A" stroke-width="4"/>
    <path d="M121.375 24.8162L116.735 29.4564" stroke="#FDBF5A" stroke-width="4"/>
    <path d="M129.648 15.9927L125.007 20.6329" stroke="#FDBF5A" stroke-width="4"/>
    <path d="M86.9559 20.9559L91.5961 25.5961" stroke="#FDBF5A" stroke-width="4"/>
    <path d="M96.3309 30.3309L100.971 34.9711" stroke="#FDBF5A" stroke-width="4"/>
    <path d="M113.103 33.6397L108.463 38.2799" stroke="#FDBF5A" stroke-width="4"/>
</svg>
