<svg width="16" height="19" viewBox="0 0 16 19" fill="none" xmlns="http://www.w3.org/2000/svg">
<path fill-rule="evenodd" clip-rule="evenodd" d="M11.7974 8.10944C11.7974 10.0416 10.2056 11.6079 8.24189 11.6079C6.27822 11.6079 4.68634 10.0416 4.68634 8.10944C4.68634 6.17732 6.27822 4.61102 8.24189 4.61102C10.2056 4.61102 11.7974 6.17732 11.7974 8.10944ZM10.0197 8.10944C10.0197 9.0755 9.22373 9.85865 8.24189 9.85865C7.26005 9.85865 6.46412 9.0755 6.46412 8.10944C6.46412 7.14338 7.26005 6.36023 8.24189 6.36023C9.22373 6.36023 10.0197 7.14338 10.0197 8.10944Z" fill="black"/>
<path fill-rule="evenodd" clip-rule="evenodd" d="M2.4837 13.5723C-0.716227 10.5747 -0.840547 5.5923 2.20602 2.44379C5.25259 -0.704719 10.3164 -0.827041 13.5163 2.17058C16.7162 5.16819 16.8405 10.1506 13.794 13.2991L8.27768 19L2.4837 13.5723ZM12.5064 12.093L8.21597 16.527L3.70954 12.3055C1.22071 9.97399 1.12402 6.09878 3.49357 3.64994C5.86313 1.2011 9.80163 1.10596 12.2905 3.43744C14.7793 5.76892 14.876 9.64413 12.5064 12.093Z" fill="black"/>
</svg>
