<svg width="16" height="16" viewBox="0 0 16 16" fill="none" xmlns="http://www.w3.org/2000/svg">
<path fill-rule="evenodd" clip-rule="evenodd" d="M10.9091 5.81818C10.9091 7.42483 9.60665 8.72727 8 8.72727C6.39335 8.72727 5.09091 7.42483 5.09091 5.81818C5.09091 4.21154 6.39335 2.90909 8 2.90909C9.60665 2.90909 10.9091 4.21154 10.9091 5.81818ZM9.45455 5.81818C9.45455 6.62151 8.80332 7.27273 8 7.27273C7.19668 7.27273 6.54545 6.62151 6.54545 5.81818C6.54545 5.01486 7.19668 4.36364 8 4.36364C8.80332 4.36364 9.45455 5.01486 9.45455 5.81818Z" fill="black"/>
<path fill-rule="evenodd" clip-rule="evenodd" d="M8 0C3.58172 0 0 3.58172 0 8C0 12.4183 3.58172 16 8 16C12.4183 16 16 12.4183 16 8C16 3.58172 12.4183 0 8 0ZM1.45455 8C1.45455 9.52015 1.97276 10.9193 2.84217 12.0303C4.03814 10.4646 5.92456 9.45455 8.0469 9.45455C10.1417 9.45455 12.0067 10.4386 13.2047 11.9697C14.0458 10.8685 14.5455 9.49262 14.5455 8C14.5455 4.38505 11.615 1.45455 8 1.45455C4.38505 1.45455 1.45455 4.38505 1.45455 8ZM8 14.5455C6.43619 14.5455 5.00048 13.9971 3.87467 13.0821C4.79529 11.7682 6.32077 10.9091 8.0469 10.9091C9.7516 10.9091 11.2606 11.747 12.1846 13.0334C11.0501 13.9776 9.59136 14.5455 8 14.5455Z" fill="black"/>
</svg>
